<?xml version="1.0" encoding="utf-8"?>
<!-- Generator: Adobe Illustrator 27.5.0, SVG Export Plug-In . SVG Version: 6.00 Build 0)  -->
<svg version="1.1" xmlns="http://www.w3.org/2000/svg" xmlns:xlink="http://www.w3.org/1999/xlink" x="0px" y="0px"
	 viewBox="0 0 500 500" style="enable-background:new 0 0 500 500;" xml:space="preserve">
<g id="City">
	<g id="City_00000030447679950324825210000001822933082883667352_">
		
			<polyline style="fill:none;stroke:#FF95FB;stroke-width:1.5;stroke-linecap:round;stroke-linejoin:round;stroke-miterlimit:10;" points="
			13.705,282.15 29.777,282.15 29.777,218.239 38.305,218.239 38.305,207.945 59.214,207.945 59.214,218.239 67.742,218.239 
			67.742,285.114 140.049,285.114 140.049,120.491 223.661,120.491 223.661,174.714 265.367,174.714 265.367,61.368 358.805,61.368 
			358.805,197.791 411.741,197.791 411.741,157.601 421.256,157.601 421.256,145.149 454.291,145.149 454.291,157.601 
			463.806,157.601 463.806,299.304 486.295,299.304 		"/>
		
			<line style="fill:none;stroke:#FF95FB;stroke-width:1.5;stroke-linecap:round;stroke-linejoin:round;stroke-miterlimit:10;" x1="48.76" y1="207.945" x2="48.76" y2="193.003"/>
		
			<line style="fill:none;stroke:#FF95FB;stroke-width:1.5;stroke-linecap:round;stroke-linejoin:round;stroke-miterlimit:10;" x1="437.773" y1="145.149" x2="437.773" y2="124.939"/>
	</g>
</g>
<g id="Floor">
	
		<line id="Floor_00000036238676660153310570000016141806378792382098_" style="fill:#FFFFFF;stroke:#303030;stroke-width:1.5;stroke-linecap:round;stroke-linejoin:round;stroke-miterlimit:10;" x1="21.992" y1="431.238" x2="484.546" y2="431.238"/>
</g>
<g id="Factory_00000031177792653124695310000011437206775707688119_">
	<g id="Factory">
		<g>
			<g>
				
					<rect x="155.86" y="254.13" style="fill:#303030;stroke:#303030;stroke-width:1.5;stroke-linecap:round;stroke-linejoin:round;stroke-miterlimit:10;" width="49.188" height="6.531"/>
				
					<polygon style="fill:#F55571;stroke:#303030;stroke-width:1.5;stroke-linecap:round;stroke-linejoin:round;stroke-miterlimit:10;" points="
					205.048,254.13 205.048,260.661 284.338,224.223 284.338,217.856 				"/>
				
					<polygon style="fill:#F55571;stroke:#303030;stroke-width:1.5;stroke-linecap:round;stroke-linejoin:round;stroke-miterlimit:10;" points="
					284.338,217.856 235.149,217.856 155.86,254.13 205.048,254.13 				"/>
			</g>
			<g>
				
					<rect x="231.757" y="254.13" style="fill:#303030;stroke:#303030;stroke-width:1.5;stroke-linecap:round;stroke-linejoin:round;stroke-miterlimit:10;" width="49.188" height="6.531"/>
				
					<polygon style="fill:#F55571;stroke:#303030;stroke-width:1.5;stroke-linecap:round;stroke-linejoin:round;stroke-miterlimit:10;" points="
					280.945,254.13 280.945,260.661 360.234,224.223 360.234,217.856 				"/>
				
					<polygon style="fill:#F55571;stroke:#303030;stroke-width:1.5;stroke-linecap:round;stroke-linejoin:round;stroke-miterlimit:10;" points="
					360.234,217.856 311.046,217.856 231.757,254.13 280.945,254.13 				"/>
			</g>
			<g>
				
					<rect x="307.653" y="254.13" style="fill:#303030;stroke:#303030;stroke-width:1.5;stroke-linecap:round;stroke-linejoin:round;stroke-miterlimit:10;" width="49.188" height="6.531"/>
				
					<polygon style="fill:#F55571;stroke:#303030;stroke-width:1.5;stroke-linecap:round;stroke-linejoin:round;stroke-miterlimit:10;" points="
					356.842,254.13 356.842,260.661 436.131,224.223 436.131,217.856 				"/>
				
					<polygon style="fill:#F55571;stroke:#303030;stroke-width:1.5;stroke-linecap:round;stroke-linejoin:round;stroke-miterlimit:10;" points="
					436.131,217.856 386.943,217.856 307.653,254.13 356.842,254.13 				"/>
			</g>
			
				<polygon style="fill:#FFFFFF;stroke:#303030;stroke-width:1.5;stroke-linecap:round;stroke-linejoin:round;stroke-miterlimit:10;" points="
				356.865,260.707 356.865,225.828 280.968,260.707 280.968,225.832 205.071,260.707 205.071,431.238 432.762,431.238 
				432.762,225.828 			"/>
			
				<rect x="161.398" y="260.661" style="fill:#00826F;stroke:#303030;stroke-width:1.5;stroke-linecap:round;stroke-linejoin:round;stroke-miterlimit:10;" width="43.65" height="170.365"/>
			<g>
				<g>
					
						<rect x="218.032" y="292.918" style="fill:#303030;stroke:#303030;stroke-width:1.5;stroke-linecap:round;stroke-linejoin:round;stroke-miterlimit:10;" width="21.552" height="4.665"/>
					
						<rect x="218.032" y="282.781" style="fill:#303030;stroke:#303030;stroke-width:1.5;stroke-linecap:round;stroke-linejoin:round;stroke-miterlimit:10;" width="21.552" height="4.666"/>
				</g>
				<g>
					
						<rect x="246.409" y="292.918" style="fill:#303030;stroke:#303030;stroke-width:1.5;stroke-linecap:round;stroke-linejoin:round;stroke-miterlimit:10;" width="21.552" height="4.665"/>
					
						<rect x="246.409" y="282.781" style="fill:#303030;stroke:#303030;stroke-width:1.5;stroke-linecap:round;stroke-linejoin:round;stroke-miterlimit:10;" width="21.552" height="4.666"/>
				</g>
			</g>
			<g>
				<g>
					
						<rect x="293.929" y="292.918" style="fill:#303030;stroke:#303030;stroke-width:1.5;stroke-linecap:round;stroke-linejoin:round;stroke-miterlimit:10;" width="21.552" height="4.665"/>
					
						<rect x="293.929" y="282.781" style="fill:#303030;stroke:#303030;stroke-width:1.5;stroke-linecap:round;stroke-linejoin:round;stroke-miterlimit:10;" width="21.552" height="4.666"/>
				</g>
				<g>
					
						<rect x="322.306" y="292.918" style="fill:#303030;stroke:#303030;stroke-width:1.5;stroke-linecap:round;stroke-linejoin:round;stroke-miterlimit:10;" width="21.552" height="4.665"/>
					
						<rect x="322.306" y="282.781" style="fill:#303030;stroke:#303030;stroke-width:1.5;stroke-linecap:round;stroke-linejoin:round;stroke-miterlimit:10;" width="21.552" height="4.666"/>
				</g>
			</g>
			<g>
				<g>
					
						<rect x="369.826" y="292.918" style="fill:#303030;stroke:#303030;stroke-width:1.5;stroke-linecap:round;stroke-linejoin:round;stroke-miterlimit:10;" width="21.552" height="4.665"/>
					
						<rect x="369.826" y="282.781" style="fill:#303030;stroke:#303030;stroke-width:1.5;stroke-linecap:round;stroke-linejoin:round;stroke-miterlimit:10;" width="21.552" height="4.666"/>
				</g>
				<g>
					
						<rect x="398.203" y="292.918" style="fill:#303030;stroke:#303030;stroke-width:1.5;stroke-linecap:round;stroke-linejoin:round;stroke-miterlimit:10;" width="21.552" height="4.665"/>
					
						<rect x="398.203" y="282.781" style="fill:#303030;stroke:#303030;stroke-width:1.5;stroke-linecap:round;stroke-linejoin:round;stroke-miterlimit:10;" width="21.552" height="4.666"/>
				</g>
			</g>
		</g>
		<g>
			
				<rect x="43.93" y="321.984" style="fill:#00826F;stroke:#303030;stroke-width:1.5;stroke-linecap:round;stroke-linejoin:round;stroke-miterlimit:10;" width="107.946" height="109.041"/>
			<g>
				<g>
					
						<rect x="61.198" y="336.884" style="fill:#303030;stroke:#303030;stroke-width:1.5;stroke-linecap:round;stroke-linejoin:round;stroke-miterlimit:10;" width="11.591" height="20.334"/>
					
						<rect x="81.804" y="336.884" style="fill:#303030;stroke:#303030;stroke-width:1.5;stroke-linecap:round;stroke-linejoin:round;stroke-miterlimit:10;" width="11.591" height="20.334"/>
					
						<rect x="102.411" y="336.884" style="fill:#303030;stroke:#303030;stroke-width:1.5;stroke-linecap:round;stroke-linejoin:round;stroke-miterlimit:10;" width="11.591" height="20.334"/>
					
						<rect x="123.017" y="336.884" style="fill:#303030;stroke:#303030;stroke-width:1.5;stroke-linecap:round;stroke-linejoin:round;stroke-miterlimit:10;" width="11.591" height="20.334"/>
				</g>
				<g>
					
						<rect x="61.198" y="366.338" style="fill:#303030;stroke:#303030;stroke-width:1.5;stroke-linecap:round;stroke-linejoin:round;stroke-miterlimit:10;" width="11.591" height="20.334"/>
					
						<rect x="81.804" y="366.338" style="fill:#303030;stroke:#303030;stroke-width:1.5;stroke-linecap:round;stroke-linejoin:round;stroke-miterlimit:10;" width="11.591" height="20.334"/>
					
						<rect x="102.411" y="366.338" style="fill:#303030;stroke:#303030;stroke-width:1.5;stroke-linecap:round;stroke-linejoin:round;stroke-miterlimit:10;" width="11.591" height="20.334"/>
					
						<rect x="123.017" y="366.338" style="fill:#303030;stroke:#303030;stroke-width:1.5;stroke-linecap:round;stroke-linejoin:round;stroke-miterlimit:10;" width="11.591" height="20.334"/>
				</g>
				<g>
					
						<rect x="61.198" y="395.792" style="fill:#303030;stroke:#303030;stroke-width:1.5;stroke-linecap:round;stroke-linejoin:round;stroke-miterlimit:10;" width="11.591" height="20.334"/>
					
						<rect x="81.804" y="395.792" style="fill:#303030;stroke:#303030;stroke-width:1.5;stroke-linecap:round;stroke-linejoin:round;stroke-miterlimit:10;" width="11.591" height="20.334"/>
					
						<rect x="102.411" y="395.792" style="fill:#303030;stroke:#303030;stroke-width:1.5;stroke-linecap:round;stroke-linejoin:round;stroke-miterlimit:10;" width="11.591" height="20.334"/>
					
						<rect x="123.017" y="395.792" style="fill:#303030;stroke:#303030;stroke-width:1.5;stroke-linecap:round;stroke-linejoin:round;stroke-miterlimit:10;" width="11.591" height="20.334"/>
				</g>
			</g>
			
				<rect x="151.876" y="321.984" style="fill:#FFFFFF;stroke:#303030;stroke-width:1.5;stroke-linecap:round;stroke-linejoin:round;stroke-miterlimit:10;" width="160.527" height="109.041"/>
			
				<rect x="151.876" y="348.873" style="fill:#00826F;stroke:#303030;stroke-width:1.5;stroke-linecap:round;stroke-linejoin:round;stroke-miterlimit:10;" width="160.527" height="8.345"/>
			
				<rect x="151.876" y="395.792" style="fill:#00826F;stroke:#303030;stroke-width:1.5;stroke-linecap:round;stroke-linejoin:round;stroke-miterlimit:10;" width="160.527" height="8.345"/>
			
				<path style="fill:#303030;stroke:#303030;stroke-width:1.5;stroke-linecap:round;stroke-linejoin:round;stroke-miterlimit:10;" d="
				M180.532,336.884h-3.605c-5.264,0-9.531,4.267-9.531,9.531v40.258h22.667v-40.258
				C190.062,341.151,185.795,336.884,180.532,336.884z"/>
			
				<path style="fill:#303030;stroke:#303030;stroke-width:1.5;stroke-linecap:round;stroke-linejoin:round;stroke-miterlimit:10;" d="
				M218.184,336.884h-3.605c-5.264,0-9.531,4.267-9.531,9.531v40.258h22.667v-40.258
				C227.715,341.151,223.448,336.884,218.184,336.884z"/>
			
				<path style="fill:#303030;stroke:#303030;stroke-width:1.5;stroke-linecap:round;stroke-linejoin:round;stroke-miterlimit:10;" d="
				M255.837,336.884h-3.605c-5.264,0-9.531,4.267-9.531,9.531v40.258h22.667v-40.258C265.367,341.151,261.1,336.884,255.837,336.884
				z"/>
			
				<rect x="43.93" y="315.572" style="fill:#F55571;stroke:#303030;stroke-width:1.5;stroke-linecap:round;stroke-linejoin:round;stroke-miterlimit:10;" width="276.503" height="6.412"/>
			
				<rect x="43.93" y="315.572" style="fill:#303030;stroke:#303030;stroke-width:1.5;stroke-linecap:round;stroke-linejoin:round;stroke-miterlimit:10;" width="117.468" height="6.412"/>
		</g>
		<g>
			<g>
				
					<rect x="279.094" y="380.378" style="fill:#00826F;stroke:#303030;stroke-width:1.5;stroke-linecap:round;stroke-linejoin:round;stroke-miterlimit:10;" width="20.824" height="50.647"/>
				
					<rect x="299.918" y="380.378" style="fill:#FFFFFF;stroke:#303030;stroke-width:1.5;stroke-linecap:round;stroke-linejoin:round;stroke-miterlimit:10;" width="66.796" height="50.647"/>
				
					<rect x="279.094" y="373.966" style="fill:#F55571;stroke:#303030;stroke-width:1.5;stroke-linecap:round;stroke-linejoin:round;stroke-miterlimit:10;" width="92.364" height="6.412"/>
				
					<rect x="279.094" y="373.966" style="fill:#303030;stroke:#303030;stroke-width:1.5;stroke-linecap:round;stroke-linejoin:round;stroke-miterlimit:10;" width="25.745" height="6.412"/>
			</g>
			
				<rect x="323.904" y="395.792" style="fill:#303030;stroke:#303030;stroke-width:1.5;stroke-linecap:round;stroke-linejoin:round;stroke-miterlimit:10;" width="18.824" height="35.233"/>
		</g>
		<g>
			
				<path style="fill:#FF95FB;stroke:#303030;stroke-width:1.5;stroke-linecap:round;stroke-linejoin:round;stroke-miterlimit:10;" d="
				M386.629,343.088h-7.695v5.995h5.801c1.046,0,1.893,0.848,1.893,1.893v80.049h5.995v-81.943l0,0
				C392.624,345.772,389.94,343.088,386.629,343.088L386.629,343.088z"/>
			
				<rect x="384.24" y="363.777" style="fill:#F55571;stroke:#303030;stroke-width:1.5;stroke-linecap:round;stroke-linejoin:round;stroke-miterlimit:10;" width="10.774" height="3.732"/>
			
				<rect x="371.681" y="344.22" transform="matrix(6.123234e-17 -1 1 6.123234e-17 30.9825 723.154)" style="fill:#F55571;stroke:#303030;stroke-width:1.5;stroke-linecap:round;stroke-linejoin:round;stroke-miterlimit:10;" width="10.774" height="3.732"/>
			
				<rect x="384.24" y="386.672" style="fill:#F55571;stroke:#303030;stroke-width:1.5;stroke-linecap:round;stroke-linejoin:round;stroke-miterlimit:10;" width="10.774" height="3.732"/>
			
				<rect x="384.24" y="409.567" style="fill:#F55571;stroke:#303030;stroke-width:1.5;stroke-linecap:round;stroke-linejoin:round;stroke-miterlimit:10;" width="10.774" height="3.732"/>
		</g>
		<g>
			
				<path style="fill:#FF95FB;stroke:#303030;stroke-width:1.5;stroke-linecap:round;stroke-linejoin:round;stroke-miterlimit:10;" d="
				M410.5,343.088h-7.694v5.995h5.801c1.046,0,1.893,0.848,1.893,1.893v80.049h5.995v-81.943l0,0
				C416.495,345.772,413.811,343.088,410.5,343.088L410.5,343.088z"/>
			
				<rect x="408.111" y="363.777" style="fill:#F55571;stroke:#303030;stroke-width:1.5;stroke-linecap:round;stroke-linejoin:round;stroke-miterlimit:10;" width="10.774" height="3.732"/>
			
				<rect x="395.552" y="344.22" transform="matrix(6.123234e-17 -1 1 6.123234e-17 54.8535 747.025)" style="fill:#F55571;stroke:#303030;stroke-width:1.5;stroke-linecap:round;stroke-linejoin:round;stroke-miterlimit:10;" width="10.774" height="3.732"/>
			
				<rect x="408.111" y="386.672" style="fill:#F55571;stroke:#303030;stroke-width:1.5;stroke-linecap:round;stroke-linejoin:round;stroke-miterlimit:10;" width="10.774" height="3.732"/>
			
				<rect x="408.111" y="409.567" style="fill:#F55571;stroke:#303030;stroke-width:1.5;stroke-linecap:round;stroke-linejoin:round;stroke-miterlimit:10;" width="10.774" height="3.732"/>
		</g>
		<g>
			<g id="Smoke">
				
					<path style="fill:#FFFFFF;stroke:#303030;stroke-width:1.5;stroke-linecap:round;stroke-linejoin:round;stroke-miterlimit:10;" d="
					M252.695,88.213c-2.381-15.209-15.539-26.845-31.417-26.845c-13.015,0-24.197,7.821-29.12,19.017
					c-4.313-7.057-12.088-11.767-20.964-11.767c-10.915,0-20.162,7.124-23.356,16.975c-1.39-1.755-3.535-2.884-5.947-2.884
					c-4.191,0-7.588,3.397-7.588,7.588c0,1.266,0.314,2.457,0.862,3.506c-2.303-1.11-4.875-1.75-7.602-1.75
					c-9.697,0-17.558,7.861-17.558,17.558c0,1.796,0.273,3.528,0.774,5.16c-6.212,0.347-11.146,5.479-11.146,11.778
					c0,2.597,0.848,4.99,2.269,6.94c-3.242,0.864-5.633,3.811-5.633,7.325c0,4.191,3.397,7.588,7.588,7.588
					c4.191,0,7.588-3.397,7.588-7.588c0-0.868-0.153-1.698-0.421-2.475c0.141,0.005,0.279,0.021,0.421,0.021
					c4.047,0,7.615-2.037,9.743-5.139c2.111,3.713,6.095,6.222,10.671,6.222c5.76,0,10.58-3.973,11.903-9.324
					c3.134,8.237,11.1,14.092,20.437,14.092c3.648,0,7.084-0.898,10.107-2.478c-0.001,0.045-0.007,0.089-0.007,0.135
					c0,4.191,3.397,7.588,7.588,7.588c3.183,0,5.904-1.962,7.031-4.741c4.001,4.437,9.794,7.227,16.239,7.227
					c8.347,0,15.598-4.679,19.282-11.555c5.833,6.829,14.501,11.163,24.186,11.163c17.565,0,31.803-14.239,31.803-31.803
					C280.429,103.564,268.336,90.212,252.695,88.213z"/>
				
					<path style="fill:#303030;stroke:#303030;stroke-width:1.5;stroke-linecap:round;stroke-linejoin:round;stroke-miterlimit:10;" d="
					M278.596,109.111c0.092,0.969,0.138,1.956,0.138,2.952c0,17.563-14.242,31.805-31.805,31.805
					c-9.685,0-18.347-4.335-24.186-11.171c-3.681,6.881-10.931,11.558-19.279,11.558c-6.448,0-12.241-2.786-16.244-7.223
					c-1.125,2.777-3.847,4.741-7.029,4.741c-4.188,0-7.582-3.404-7.582-7.592v-0.138c-3.016,1.586-6.457,2.481-10.101,2.481
					c-9.344,0-17.305-5.857-20.441-14.095c-1.319,5.35-6.143,9.326-11.899,9.326c-4.575,0-8.56-2.509-10.673-6.217
					c-2.131,3.099-5.701,5.138-9.741,5.138c-0.148,0-0.286-0.018-0.424-0.028l-0.037-0.018c0.175,0.858,0.268,1.734,0.268,2.629
					c0,6.531-4.704,11.955-10.903,13.071c1.356,1.291,3.192,2.076,5.202,2.076c4.188,0,7.583-3.404,7.583-7.592
					c0-0.867-0.148-1.697-0.415-2.472c0.138,0,0.277,0.018,0.415,0.018c4.049,0,7.619-2.039,9.741-5.138
					c2.112,3.708,6.097,6.217,10.673,6.217c5.765,0,10.58-3.967,11.909-9.317c3.127,8.228,11.097,14.086,20.432,14.086
					c3.653,0,7.084-0.895,10.11-2.472c0,0.046-0.009,0.083-0.009,0.129c0,4.197,3.394,7.592,7.592,7.592
					c3.182,0,5.904-1.965,7.029-4.741c4.003,4.437,9.796,7.223,16.244,7.223c8.339,0,15.598-4.677,19.279-11.549
					c5.83,6.826,14.501,11.161,24.186,11.161c17.563,0,31.805-14.242,31.805-31.805
					C280.432,116.021,279.786,112.432,278.596,109.111z"/>
			</g>
			<g>
				
					<rect x="85.734" y="143.176" style="fill:#F55571;stroke:#303030;stroke-width:1.5;stroke-linecap:round;stroke-linejoin:round;stroke-miterlimit:10;" width="35.859" height="9.8"/>
				<g>
					
						<polygon style="fill:#FFFFFF;stroke:#303030;stroke-width:1.5;stroke-linecap:round;stroke-linejoin:round;stroke-miterlimit:10;" points="
						125.555,315.572 81.773,315.572 89.254,152.976 118.074,152.976 					"/>
					<g>
						
							<polygon style="fill:#F55571;stroke:#303030;stroke-width:1.5;stroke-linecap:round;stroke-linejoin:round;stroke-miterlimit:10;" points="
							120.496,205.621 120.237,199.979 87.091,199.979 86.832,205.621 						"/>
						
							<polygon style="fill:#F55571;stroke:#303030;stroke-width:1.5;stroke-linecap:round;stroke-linejoin:round;stroke-miterlimit:10;" points="
							88.479,169.81 88.22,175.452 119.108,175.452 118.849,169.81 						"/>
						
							<polygon style="fill:#F55571;stroke:#303030;stroke-width:1.5;stroke-linecap:round;stroke-linejoin:round;stroke-miterlimit:10;" points="
							124.66,296.126 124.4,290.484 82.928,290.484 82.668,296.126 						"/>
						
							<polygon style="fill:#F55571;stroke:#303030;stroke-width:1.5;stroke-linecap:round;stroke-linejoin:round;stroke-miterlimit:10;" points="
							123.272,265.957 123.013,260.315 84.316,260.315 84.056,265.957 						"/>
						
							<polygon style="fill:#F55571;stroke:#303030;stroke-width:1.5;stroke-linecap:round;stroke-linejoin:round;stroke-miterlimit:10;" points="
							121.884,235.789 121.625,230.147 85.703,230.147 85.444,235.789 						"/>
					</g>
				</g>
			</g>
		</g>
	</g>
</g>
<g id="Tree">
	<g id="Tree_00000054985848742727760960000012315675733622155943_">
		<path style="fill:#00826F;" d="M463.046,403.215c10.056,0,18.238-8.18,18.238-18.237c0-4.963-2.058-9.773-5.645-13.195
			c-1.232-1.177-1.677-2.957-1.139-4.573c0.407-1.227,0.613-2.508,0.613-3.809c0-6.653-5.413-12.065-12.067-12.065
			c-6.654,0-12.067,5.413-12.067,12.065c0,1.303,0.206,2.583,0.613,3.808c0.538,1.617,0.095,3.398-1.138,4.575
			c-3.587,3.422-5.645,8.232-5.645,13.195C444.809,395.034,452.99,403.215,463.046,403.215z"/>
		
			<path style="fill:#FFFFFF;stroke:#303030;stroke-width:1.5;stroke-linecap:round;stroke-linejoin:round;stroke-miterlimit:10;" d="
			M463.047,363.117c-0.107-0.038-0.013,61.031,0,68.153"/>
		
			<line style="fill:#FFFFFF;stroke:#303030;stroke-width:1.5;stroke-linecap:round;stroke-linejoin:round;stroke-miterlimit:10;" x1="462.993" y1="391.788" x2="452.823" y2="381.651"/>
	</g>
</g>
</svg>
